<svg width="26" height="32" viewBox="0 0 26 32" fill="none" xmlns="http://www.w3.org/2000/svg">
<path d="M22.5 6.50002H19.3333C19.3333 3.00085 16.4992 0.166687 13 0.166687C9.50084 0.166687 6.66667 3.00085 6.66667 6.50002H3.5C1.75834 6.50002 0.333336 7.92502 0.333336 9.66669V28.6667C0.333336 30.4084 1.75834 31.8334 3.5 31.8334H22.5C24.2417 31.8334 25.6667 30.4084 25.6667 28.6667V9.66669C25.6667 7.92502 24.2417 6.50002 22.5 6.50002ZM13 3.33335C14.7417 3.33335 16.1667 4.75835 16.1667 6.50002H9.83334C9.83334 4.75835 11.2583 3.33335 13 3.33335ZM22.5 28.6667H3.5V9.66669H6.66667V12.8334C6.66667 13.7042 7.37917 14.4167 8.25 14.4167C9.12084 14.4167 9.83334 13.7042 9.83334 12.8334V9.66669H16.1667V12.8334C16.1667 13.7042 16.8792 14.4167 17.75 14.4167C18.6208 14.4167 19.3333 13.7042 19.3333 12.8334V9.66669H22.5V28.6667Z" fill="#E5383B"/>
</svg>
