<?xml version="1.0" encoding="utf-8"?>
<!-- Generator: Adobe Illustrator 27.3.0, SVG Export Plug-In . SVG Version: 6.00 Build 0)  -->
<svg version="1.1" id="Camada_1" xmlns="http://www.w3.org/2000/svg" xmlns:xlink="http://www.w3.org/1999/xlink" x="0px" y="0px"
	 viewBox="0 0 26 32" style="enable-background:new 0 0 26 32;" xml:space="preserve">
<style type="text/css">
	.st0{fill:#E5383B;}
	.st1{fill:#660708;}
</style>
<rect x="1.7" y="8.5" class="st0" width="22.1" height="21.4"/>
<path class="st1" d="M22.5,6.5h-3.2c0-3.5-2.8-6.3-6.3-6.3C9.5,0.2,6.7,3,6.7,6.5H3.5c-1.7,0-3.2,1.4-3.2,3.2v19
	c0,1.7,1.4,3.2,3.2,3.2h19c1.7,0,3.2-1.4,3.2-3.2v-19C25.7,7.9,24.2,6.5,22.5,6.5z M13,3.3c1.7,0,3.2,1.4,3.2,3.2H9.8
	C9.8,4.8,11.3,3.3,13,3.3z M22.5,28.7h-19v-19h3.2v3.2c0,0.9,0.7,1.6,1.6,1.6c0.9,0,1.6-0.7,1.6-1.6V9.7h6.3v3.2
	c0,0.9,0.7,1.6,1.6,1.6s1.6-0.7,1.6-1.6V9.7h3.2V28.7z"/>
</svg>
