<svg width="35" height="32" viewBox="0 0 35 32" fill="none" xmlns="http://www.w3.org/2000/svg">
<path d="M25.4087 0C22.3744 0 19.4621 1.41253 17.5613 3.64469C15.6605 1.41253 12.7482 0 9.7139 0C4.34278 0 0.12262 4.22016 0.12262 9.59128C0.12262 16.1831 6.05177 21.5542 15.0327 29.7155L17.5613 32L20.0899 29.6981C29.0708 21.5542 35 16.1831 35 9.59128C35 4.22016 30.7798 0 25.4087 0ZM17.7357 27.1172L17.5613 27.2916L17.3869 27.1172C9.08611 19.6011 3.61036 14.6311 3.61036 9.59128C3.61036 6.10354 6.22616 3.48774 9.7139 3.48774C12.3995 3.48774 15.0153 5.21417 15.9395 7.60327H19.2005C20.1074 5.21417 22.7232 3.48774 25.4087 3.48774C28.8965 3.48774 31.5123 6.10354 31.5123 9.59128C31.5123 14.6311 26.0365 19.6011 17.7357 27.1172Z" fill="url(#paint0_linear_16_35)"/>
<defs>
<linearGradient id="paint0_linear_16_35" x1="14.6952" y1="-3.84001" x2="64.9449" y2="3.41189" gradientUnits="userSpaceOnUse">
<stop stop-color="#E5383B"/>
<stop offset="1" stop-color="#A4161A"/>
</linearGradient>
</defs>
</svg>
