<?xml version="1.0" encoding="utf-8"?>
<!-- Generator: Adobe Illustrator 27.3.0, SVG Export Plug-In . SVG Version: 6.00 Build 0)  -->
<svg version="1.1" id="Camada_1" xmlns="http://www.w3.org/2000/svg" xmlns:xlink="http://www.w3.org/1999/xlink" x="0px" y="0px"
	 viewBox="0 0 35 32" style="enable-background:new 0 0 35 32;" xml:space="preserve">
<style type="text/css">
	.st0{fill:url(#SVGID_1_);}
	.st1{fill:#660708;}
</style>
<linearGradient id="SVGID_1_" gradientUnits="userSpaceOnUse" x1="13.9286" y1="18.9504" x2="59.6498" y2="25.5488" gradientTransform="matrix(1 0 0 -1 0 34)">
	<stop  offset="0" style="stop-color:#E5383B"/>
	<stop  offset="1" style="stop-color:#A4161A"/>
</linearGradient>
<path class="st0" d="M2.5,6.8c0,0,5-10.6,14.7-0.8c0,0,11.2-9.6,15.8,2S17.2,28.5,17.2,28.5S0.5,12.3,1.6,8.9S2.5,6.8,2.5,6.8z"/>
<path class="st1" d="M25.4,0c-3,0-5.9,1.4-7.8,3.6C15.7,1.4,12.7,0,9.7,0C4.3,0,0.1,4.2,0.1,9.6c0,6.6,5.9,12,14.9,20.1l2.5,2.3
	l2.5-2.3c9.1-8.1,15-13.5,15-20.1C35,4.2,30.8,0,25.4,0z M17.7,27.1l-0.2,0.2l-0.2-0.2C9.1,19.6,3.6,14.6,3.6,9.6
	c0-3.5,2.6-6.1,6.1-6.1c2.7,0,5.3,1.7,6.2,4.1h3.3c0.9-2.4,3.5-4.1,6.2-4.1c3.5,0,6.1,2.6,6.1,6.1C31.5,14.6,26,19.6,17.7,27.1z"/>
</svg>
