<?xml version="1.0" encoding="utf-8"?>
<!-- Generator: Adobe Illustrator 27.3.0, SVG Export Plug-In . SVG Version: 6.00 Build 0)  -->
<svg version="1.1" id="Camada_1" xmlns="http://www.w3.org/2000/svg" xmlns:xlink="http://www.w3.org/1999/xlink" x="0px" y="0px"
	 viewBox="0 0 180 110" style="enable-background:new 0 0 180 110;" xml:space="preserve">
<style type="text/css">
	.st0{display:none;fill:#E5383B;}
	.st1{fill:#E5383B;}
	.st2{display:none;}
	.st3{display:inline;fill:#E5383B;}
	.st4{display:inline;fill:none;stroke:#E5383B;stroke-width:4.9885;stroke-linejoin:round;stroke-miterlimit:10;}
	
		.st5{display:inline;fill:none;stroke:#E5383B;stroke-width:4.9885;stroke-linecap:round;stroke-linejoin:round;stroke-miterlimit:10;}
	
		.st6{display:inline;fill:none;stroke:#E5383B;stroke-width:5.0217;stroke-linecap:round;stroke-linejoin:round;stroke-miterlimit:10;}
	.st7{display:inline;}
</style>
<path class="st0" d="M-106.3-739.6h-94.4c-5.8,0-10.5,4.7-10.5,10.5v36.7c0,5.8,4.7,10.5,10.5,10.5h94.4c5.8,0,10.5-4.7,10.5-10.5
	v-36.7C-95.8-734.9-100.5-739.6-106.3-739.6z M-106.3-692.4h-94.4v-36.7h94.4C-106.3-729.1-106.3-692.4-106.3-692.4z M-190.2-702.9
	c0-2.9,2.3-5.2,5.2-5.2h62.9c2.9,0,5.2,2.3,5.2,5.2s-2.3,5.2-5.2,5.2H-185C-187.8-697.6-190.2-700-190.2-702.9z M-132.5-718.6
	c0-2.9,2.3-5.2,5.2-5.2h5.2c2.9,0,5.2,2.3,5.2,5.2s-2.3,5.2-5.2,5.2h-5.2C-130.1-713.4-132.5-715.7-132.5-718.6z M-165-648.9
	l6.8-6.8l-1.5-1.5c-2-2-2-5.4,0-7.4l10.5-10.5c2.1-2,5.4-2,7.4,0.1c2,2,2,5.3,0,7.3l-6.8,6.8l1.5,1.5c2,2,2,5.4,0,7.4l-10.5,10.5
	c-2.1,2-5.4,2-7.4-0.1C-167-643.6-167-646.9-165-648.9L-165-648.9z M-136.2-648.9l6.8-6.8l-1.5-1.5c-2-2-2-5.4,0-7.4l10.5-10.5
	c2.1-2,5.4-2,7.4,0.1c2,2,2,5.3,0,7.3l-6.8,6.8l1.5,1.5c2,2,2,5.4,0,7.4l-10.5,10.5c-2.1,2-5.4,2-7.4-0.1
	C-138.1-643.6-138.1-646.9-136.2-648.9L-136.2-648.9z M-193.9-648.9l6.8-6.8l-1.5-1.5c-2-2-2-5.4,0-7.4l10.5-10.5
	c2.1-2,5.4-2,7.4,0.1c2,2,2,5.3,0,7.3l-6.8,6.8l1.5,1.5c2,2,2,5.4,0,7.4l-10.5,10.5c-2.1,2-5.4,2-7.4-0.1
	C-195.8-643.6-195.8-646.9-193.9-648.9z"/>
<g>
	<circle class="st1" cx="90" cy="28" r="3.2"/>
	<path class="st1" d="M81.7,48.8c-0.9-0.5-2-0.2-2.5,0.7L79,49.7c-0.5,0.9-0.2,2,0.7,2.5c0.3,0.2,0.6,0.2,0.9,0.2
		c0.6,0,1.3-0.3,1.6-0.9l0.2-0.3C82.9,50.4,82.6,49.3,81.7,48.8z"/>
	<path class="st1" d="M119.2,68.3L98.4,32.4c0.7-1.3,1.1-2.8,1.1-4.4c0-5.3-4.3-9.5-9.5-9.5c-0.5,0-0.9,0-1.4,0.1v-4.9h2.8v2.1
		c0,1,0.8,1.9,1.9,1.9c1,0,1.9-0.8,1.9-1.9v-3.9c0-1-0.8-1.9-1.9-1.9h-6.5c-0.5,0-1,0.2-1.3,0.5S85,11.3,85,11.8V20
		c-2.7,1.7-4.4,4.7-4.4,8c0,1.6,0.4,3.1,1.1,4.4L60.8,68.3c-0.2,0.4-0.3,0.9-0.2,1.4l2.4,8.9c0.2,0.7,0.8,1.3,1.6,1.4
		c0.1,0,0.2,0,0.2,0c0.7,0,1.3-0.3,1.6-0.9l11.7-20.3h10v2.8c0,1,0.8,1.9,1.9,1.9s1.9-0.8,1.9-1.9V57v-0.1v-0.1v-4.5
		c0-1-0.8-1.9-1.9-1.9s-1.9,0.8-1.9,1.9V55h-11c-0.7,0-1.3,0.4-1.6,0.9l-10,17.3l-1-3.8l19.6-34c0.7,0.6,1.5,1,2.4,1.4L82,44.6
		c-0.5,0.9-0.2,2,0.7,2.5c0.3,0.2,0.6,0.2,0.9,0.2c0.6,0,1.3-0.3,1.6-0.9l4.7-8.2L99.7,55h-4.3c-1,0-1.9,0.8-1.9,1.9
		c0,1,0.8,1.9,1.9,1.9h7.5c0.7,0,1.3-0.4,1.6-0.9c0.3-0.6,0.3-1.3,0-1.9l-11-19.1c0.9-0.3,1.7-0.8,2.4-1.4l19.6,34l-1,3.8l-6.2-10.7
		c-0.5-0.9-1.7-1.2-2.5-0.7c-0.9,0.5-1.2,1.7-0.7,2.5l8.4,14.6c0.3,0.6,1,0.9,1.6,0.9c0.1,0,0.2,0,0.2,0c0.7-0.1,1.4-0.6,1.6-1.4
		l2.4-8.9C119.5,69.2,119.4,68.7,119.2,68.3z M90,33.8c-3.2,0-5.8-2.6-5.8-5.8s2.6-5.8,5.8-5.8c3.2,0,5.8,2.6,5.8,5.8
		S93.2,33.8,90,33.8z"/>
</g>
<g class="st2">
	<path class="st3" d="M90,10c-13.5,0-24.5,10.9-24.5,24.5c0,3.6,0.7,7.1,2.2,10.3c0.7,1.4,1.6,2.7,2.5,4c1.8,2.4,3.3,5,4.4,7.7
		c0.8,2.9,1.2,5.9,1.3,8.9h4.4c-0.1-3.5-0.6-7-1.6-10.4c-1.3-3.1-2.9-6-4.9-8.7c-0.8-1.1-1.5-2.2-2.2-3.4c-1.2-2.6-1.8-5.5-1.7-8.3
		c0-11.1,9-20.1,20.1-20.1s20.1,9,20.1,20.1c0,2.9-0.6,5.8-1.9,8.4c-0.7,1.2-1.4,2.3-2.2,3.4c-2,2.7-3.6,5.6-4.9,8.7
		c-1,3.4-1.5,6.9-1.6,10.5h4.4c0.1-3,0.5-6,1.3-8.9c1.2-2.7,2.7-5.3,4.4-7.7c0.9-1.3,1.7-2.6,2.5-4c1.5-3.2,2.3-6.7,2.2-10.3
		C114.4,20.9,103.5,10,90,10z"/>
	<path class="st3" d="M91.4,39.4c-0.7-0.7-1.8-0.7-2.5,0l-6.7,6.7l6.4,7v12.3h3.6V51.6l-5-5.4l4.2-4.2
		C92.1,41.3,92.1,40.2,91.4,39.4C91.4,39.5,91.4,39.4,91.4,39.4z"/>
	<path class="st3" d="M103,69.7H76.9c-1,0-1.8,0.8-1.8,1.8s0.8,1.8,1.8,1.8l0,0H103c1,0,1.8-0.8,1.8-1.8S104,69.7,103,69.7z"/>
	<path class="st3" d="M98.9,76.4H81.1c-1,0-1.8,0.8-1.8,1.8s0.8,1.8,1.8,1.8l0,0h17.8c1,0,1.8-0.8,1.8-1.8S99.9,76.4,98.9,76.4
		L98.9,76.4z"/>
	<path class="st3" d="M88.5,29.2l-6.1,6.1c-0.7,0.7-0.6,1.9,0.1,2.5s1.7,0.6,2.4,0l6.1-6.1c0.7-0.7,0.8-1.8,0.1-2.5
		c-0.7-0.7-1.8-0.8-2.5-0.1C88.6,29,88.5,29.1,88.5,29.2L88.5,29.2z"/>
</g>
<g class="st2">
	<path class="st4" d="M122.1,55.5c-2.7,0.5-5,0-6-1.7s-0.2-4.2,1.5-6.2c-2.2-2.2-4.7-3.7-7.7-4.5c-0.7,2.5-2.5,4.5-4.5,4.5
		s-3.7-1.7-4.5-4.5c-3,0.7-5.7,2.2-7.7,4.5c1.7,2,2.5,4.5,1.5,6.2s-3.5,2.2-6,1.7c-0.7,1.5-1,3-1,4.5s0.2,3,0.5,4.5
		c2.7-0.5,5,0,6,1.7s0.2,4.2-1.5,6.2c2.2,2.2,4.7,3.7,7.7,4.5c0.7-2.5,2.5-4.5,4.5-4.5s3.7,1.7,4.5,4.5c3-0.7,5.7-2.2,7.7-4.5
		c-1.7-2-2.5-4.5-1.5-6.2s3.5-2.2,6-1.7c0.5-1.5,0.5-3,0.5-4.5S122.4,57,122.1,55.5z"/>
	<circle class="st4" cx="105.2" cy="60" r="5"/>
	<line class="st5" x1="62.8" y1="35" x2="102.7" y2="35"/>
	<path class="st5" d="M76.5,25.3l-3-10.5l0,0c5.7-3,12.7-3,18.5,0l0,0l-3,10.5"/>
	<path class="st5" d="M91.4,17.3c5,3,8.2,8.5,8.2,14.7v3"/>
	<path class="st5" d="M65.8,35v-3c0-6.2,3.2-11.7,8.2-14.7"/>
	<path class="st5" d="M70.2,35v5c0,5.2,2.2,10,6.2,12.5l0,0c0,5.2-3.2,9.7-8,11C63,65,59,70,57.8,76c0,0.7,0.5,1.5,1.2,1.5h23.7"/>
</g>
<g class="st2">
	<line class="st6" x1="90" y1="52" x2="90" y2="34.4"/>
	<line class="st6" x1="97.6" y1="52" x2="97.6" y2="34.4"/>
	<line class="st6" x1="105.1" y1="52" x2="105.1" y2="36.9"/>
	<path class="st6" d="M107.6,77.1L107.6,77.1c3.3-8.3,5-17.1,5-26.1V38.2c0-2-1.8-3.8-3.8-3.8s-3.8,1.8-3.8,3.8v-2.5
		c0-2-1.8-3.8-3.8-3.8s-3.8,1.8-3.8,3.8v-2.5c0-2-1.8-3.8-3.8-3.8s-3.8,1.8-3.8,3.8v2.5c0-2-1.8-3.8-3.8-3.8s-3.8,1.8-3.8,3.8v18.8
		v6l-6.3-6.3c-1.5-1.5-3.8-1.8-5.3-0.5c-2,1.5-2.3,4.5-0.5,6.3l17.1,17.1"/>
	<path class="st6" d="M109.4,72.1c10,0.5,18.3-7.5,18.3-17.6c0-3-0.8-5.8-2-8.3c-2-3.8-2.3-8-1-11.8c0.8-2.5,1-5,0.5-7.8
		c-1.3-7.3-7-13.1-14.3-14.3c-4-0.8-8,0-11.3,1.8c-4.5,2-9.5,2.5-14.3,1c-2.5-0.8-5.5-1-8.5-0.5c-7,1.3-12.8,7-14.1,14.1V29
		c-1.3,7.8-4,15.1-8,22.1c-2,3.5-2.8,7.5-2,11.8c1.3,7,6.8,12.8,13.8,14.1c6.3,1.3,12.1-0.8,16.1-4.8"/>
</g>
<g class="st2">
	<g class="st7">
		<g>
			<path class="st1" d="M126.6,26.5l-14.3-14.3c-3-3-7.8-3-10.8,0c-1.3,1.3-46.9,46.9-48.2,48.2c-2.9,2.9-2.9,7.6,0,10.5l8.4,8.4
				c1.4,1.4,3.7,0.8,4.2-1.1l1.9-6.4l7.9-0.7c1-0.1,1.9-0.8,2.2-1.8l1.9-6.4l7.9-0.7c1-0.1,1.9-0.8,2.2-1.8l1.9-6.4l7.9-0.7
				c1-0.1,1.9-0.8,2.2-1.8l1.9-6.2h5.9c3,2.2,7.2,1.9,9.9-0.7l7.2-7.2C129.6,34.3,129.6,29.4,126.6,26.5z M101.7,40.1
				c-1.1,0-2.1,0.7-2.4,1.8l-1.9,6.4L89.6,49c-1,0.1-1.9,0.8-2.2,1.8l-1.9,6.4l-7.9,0.7c-1,0.1-1.9,0.8-2.2,1.8l-1.9,6.4l-7.9,0.7
				c-1,0.1-1.9,0.8-2.2,1.8l-1.2,4l-5.4-5.4c-0.9-0.9-0.9-2.4,0-3.4l35.6-35.6l3.5,3.5l8.4,8.4H101.7z M123,33.6l-7.2,7.2
				c-1,1-2.6,1-3.6,0L96.1,24.7l9-9c1-1,2.6-1,3.6,0L123,30.1C124,31,124,32.7,123,33.6z"/>
		</g>
	</g>
	<g class="st7">
		<g>
			<path class="st1" d="M115.9,30.1l-7.2-7.2c-1-1-2.6-1-3.6,0s-1,2.6,0,3.6l7.2,7.2c0.5,0.5,1.1,0.7,1.8,0.7c0.6,0,1.3-0.2,1.8-0.7
				C116.8,32.7,116.8,31,115.9,30.1z"/>
		</g>
	</g>
</g>
<path class="st0" d="M115.4,16.5h-3.8c-1.3-3.8-4.9-6.3-8.9-6.3H64.6c-5.3,0-9.5,4.3-9.5,9.5s4.3,9.5,9.5,9.5h38.1
	c4,0,7.6-2.6,8.9-6.3h3.8c1.8,0,3.2,1.4,3.2,3.2v9.5c0,1.8-1.4,3.2-3.2,3.2h-19c-5.3,0-9.5,4.3-9.5,9.5h-3.2c-1.8,0-3.2,1.4-3.2,3.2
	v25.4c0,1.8,1.4,3.2,3.2,3.2h12.7c1.8,0,3.2-1.4,3.2-3.2V51.3c0-1.8-1.4-3.2-3.2-3.2h-3.2c0-1.8,1.4-3.2,3.2-3.2h19
	c5.3,0,9.5-4.3,9.5-9.5V26C124.9,20.7,120.6,16.5,115.4,16.5z M102.7,22.8H64.6c-1.8,0-3.2-1.4-3.2-3.2c0-1.8,1.4-3.2,3.2-3.2h38.1
	c1.8,0,3.2,1.4,3.2,3.2C105.9,21.4,104.4,22.8,102.7,22.8z M93.2,73.5h-6.3v-19h6.3V73.5z M67.3,33.8c-1-1.5-3.1-1.9-4.6-0.8
	c-0.3,0.2-0.6,0.5-0.8,0.8l-5.3,8.8c-1,1.6-1.5,3.5-1.5,5.4c-0.3,5,3.5,9.3,8.6,9.6h1.9c5-0.3,8.8-4.6,8.6-9.6
	c0-1.9-0.5-3.8-1.5-5.4L67.3,33.8z M65.6,51.3h-1.9c-1,0-2.2-1.4-2.2-3.3c0-1.9,1-2.5,3.2-6.4c2.2,3.9,3.2,4.5,3.2,6.4
	C67.8,50,66.6,51.3,65.6,51.3z"/>
<g class="st2">
	<g class="st7">
		<path class="st1" d="M135.2,75.4l-7.8-46.6c-0.3-1.9-1.9-3.2-3.8-3.2h-6.5v-8c1.5-0.5,2.6-2,2.6-3.7c0-2.1-1.7-3.9-3.9-3.9h-2.6
			H97.8h-2.6c-2.1,0-3.9,1.7-3.9,3.9c0,1.7,1.1,3.1,2.6,3.7v8H56.4c-1.9,0-3.5,1.4-3.8,3.2l-7.8,46.6c-0.2,1.1,0.1,2.3,0.9,3.1
			c0.7,0.9,1.8,1.4,3,1.4h82.8c1.1,0,2.2-0.5,3-1.4C135.1,77.7,135.4,76.5,135.2,75.4z M101.6,17.8h7.8v7.8h-7.8V17.8L101.6,17.8z
			 M59.6,33.4h38.1h15.5h7.1l1.3,7.8H58.4L59.6,33.4z M57.1,48.9H123l1.3,7.8H55.8L57.1,48.9z M53.2,72.2l1.3-7.8h71.1l1.3,7.8H53.2
			L53.2,72.2z"/>
	</g>
</g>
</svg>
