<?xml version="1.0" encoding="utf-8"?>
<!-- Generator: Adobe Illustrator 27.3.0, SVG Export Plug-In . SVG Version: 6.00 Build 0)  -->
<svg version="1.1" id="Camada_1" xmlns="http://www.w3.org/2000/svg" xmlns:xlink="http://www.w3.org/1999/xlink" x="0px" y="0px"
	 viewBox="0 0 180 110" style="enable-background:new 0 0 180 110;" xml:space="preserve">
<style type="text/css">
	.st0{display:none;fill:#E5383B;}
	.st1{display:none;}
	.st2{display:inline;fill:#E5383B;}
	.st3{display:inline;fill:#FFFFFF;}
	.st4{display:inline;fill:#E5383B;fill-opacity:0;}
	.st5{display:inline;fill:none;stroke:#E5383B;stroke-width:7.8449;stroke-linejoin:round;stroke-miterlimit:10;}
	
		.st6{display:inline;fill:none;stroke:#E5383B;stroke-width:7.8449;stroke-linecap:round;stroke-linejoin:round;stroke-miterlimit:10;}
	.st7{fill:none;stroke:#E5383B;stroke-width:5.0217;stroke-linecap:round;stroke-linejoin:round;stroke-miterlimit:10;}
	.st8{display:inline;}
	.st9{fill:#E5383B;}
</style>
<path class="st0" d="M-106.3-739.6h-94.4c-5.8,0-10.5,4.7-10.5,10.5v36.7c0,5.8,4.7,10.5,10.5,10.5h94.4c5.8,0,10.5-4.7,10.5-10.5
	v-36.7C-95.8-734.9-100.5-739.6-106.3-739.6z M-106.3-692.4h-94.4v-36.7h94.4C-106.3-729.1-106.3-692.4-106.3-692.4z M-190.2-702.9
	c0-2.9,2.3-5.2,5.2-5.2h62.9c2.9,0,5.2,2.3,5.2,5.2s-2.3,5.2-5.2,5.2H-185C-187.8-697.6-190.2-700-190.2-702.9z M-132.5-718.6
	c0-2.9,2.3-5.2,5.2-5.2h5.2c2.9,0,5.2,2.3,5.2,5.2s-2.3,5.2-5.2,5.2h-5.2C-130.1-713.4-132.5-715.7-132.5-718.6z M-165-648.9
	l6.8-6.8l-1.5-1.5c-2-2-2-5.4,0-7.4l10.5-10.5c2.1-2,5.4-2,7.4,0.1c2,2,2,5.3,0,7.3l-6.8,6.8l1.5,1.5c2,2,2,5.4,0,7.4l-10.5,10.5
	c-2.1,2-5.4,2-7.4-0.1C-167-643.6-167-646.9-165-648.9L-165-648.9z M-136.2-648.9l6.8-6.8l-1.5-1.5c-2-2-2-5.4,0-7.4l10.5-10.5
	c2.1-2,5.4-2,7.4,0.1c2,2,2,5.3,0,7.3l-6.8,6.8l1.5,1.5c2,2,2,5.4,0,7.4l-10.5,10.5c-2.1,2-5.4,2-7.4-0.1
	C-138.1-643.6-138.1-646.9-136.2-648.9L-136.2-648.9z M-193.9-648.9l6.8-6.8l-1.5-1.5c-2-2-2-5.4,0-7.4l10.5-10.5
	c2.1-2,5.4-2,7.4,0.1c2,2,2,5.3,0,7.3l-6.8,6.8l1.5,1.5c2,2,2,5.4,0,7.4l-10.5,10.5c-2.1,2-5.4,2-7.4-0.1
	C-195.8-643.6-195.8-646.9-193.9-648.9z"/>
<g class="st1">
	<circle class="st2" cx="-153.5" cy="-716.3" r="5.1"/>
	<path class="st2" d="M-166.6-683.4c-1.4-0.8-3.2-0.3-4,1.1l-0.2,0.4c-0.8,1.4-0.3,3.2,1.1,4c0.5,0.3,1,0.4,1.5,0.4
		c1,0,2-0.5,2.6-1.5l0.2-0.4C-164.7-680.8-165.2-682.6-166.6-683.4z"/>
	<path class="st2" d="M-107.3-652.5l-32.8-56.9c1.1-2.1,1.7-4.5,1.7-7c0-8.3-6.8-15.1-15.1-15.1c-0.8,0-1.5,0.1-2.2,0.2v-7.8h4.4
		v3.3c0,1.6,1.3,2.9,2.9,2.9c1.6,0,2.9-1.3,2.9-2.9v-6.2c0-1.6-1.3-2.9-2.9-2.9h-10.3c-0.8,0-1.5,0.3-2.1,0.9
		c-0.6,0.6-0.9,1.3-0.9,2.1v13c-4.2,2.7-7,7.4-7,12.7c0,2.5,0.6,4.9,1.7,7l-32.8,56.9c-0.4,0.7-0.5,1.5-0.3,2.2l3.8,14.1
		c0.3,1.2,1.3,2,2.5,2.2c0.1,0,0.3,0,0.4,0c1,0,2-0.6,2.6-1.5l18.6-32.2h15.8v4.4c0,1.6,1.3,2.9,2.9,2.9s2.9-1.3,2.9-2.9v-7.2
		c0-0.1,0-0.1,0-0.2s0-0.1,0-0.2v-7.2c0-1.6-1.3-2.9-2.9-2.9s-2.9,1.3-2.9,2.9v4.4h-17.5c-1.1,0-2,0.6-2.6,1.5l-15.9,27.5l-1.6-6
		l31.1-53.9c1.1,0.9,2.4,1.7,3.8,2.2l-7.1,12.2c-0.8,1.4-0.3,3.2,1.1,4c0.5,0.3,1,0.4,1.5,0.4c1,0,2-0.5,2.6-1.5l7.5-13l15.4,26.6
		h-6.8c-1.6,0-2.9,1.3-2.9,2.9s1.3,2.9,2.9,2.9h11.9c1.1,0,2-0.6,2.6-1.5c0.5-0.9,0.5-2,0-2.9l-17.5-30.2c1.4-0.6,2.7-1.3,3.8-2.2
		l31.1,53.9l-1.6,6l-9.8-17c-0.8-1.4-2.6-1.9-4-1.1c-1.4,0.8-1.9,2.6-1.1,4l13.4,23.1c0.5,0.9,1.5,1.5,2.6,1.5c0.1,0,0.3,0,0.4,0
		c1.2-0.2,2.2-1,2.5-2.2l3.8-14.1C-106.8-651-106.9-651.8-107.3-652.5z M-153.5-707.1c-5.1,0-9.2-4.1-9.2-9.2c0-5.1,4.1-9.2,9.2-9.2
		c5.1,0,9.2,4.1,9.2,9.2C-144.3-711.3-148.4-707.1-153.5-707.1z"/>
</g>
<g class="st1">
	<rect x="-222" y="-745" class="st3" width="137" height="111"/>
	<path class="st2" d="M-150.5-741.2c-19.3,0-35,15.6-35,35c-0.1,5.1,1,10.1,3.2,14.7c1.1,2,2.3,3.8,3.6,5.7c2.5,3.4,4.7,7.1,6.4,11
		c1.2,4.1,1.8,8.4,1.9,12.7h6.4c-0.1-5-0.9-10.1-2.3-14.9c-1.8-4.4-4.2-8.6-7.1-12.5c-1.2-1.6-2.2-3.2-3.2-4.9
		c-1.7-3.7-2.6-7.8-2.5-11.9c0-15.9,12.9-28.7,28.7-28.7s28.7,12.9,28.7,28.7c0,4.1-0.9,8.2-2.7,12c-1,1.7-2,3.3-3.2,4.9
		c-2.8,3.8-5.2,8-7,12.4c-1.4,4.9-2.2,9.9-2.3,15h6.4c0.1-4.3,0.7-8.6,1.9-12.7c1.7-3.9,3.8-7.6,6.4-11c1.3-1.8,2.5-3.8,3.6-5.8
		c2.1-4.6,3.2-9.6,3.2-14.7C-115.6-725.6-131.2-741.2-150.5-741.2z"/>
	<path class="st2" d="M-148.5-699.1c-1-1-2.6-1-3.6,0l-9.5,9.5l9.1,9.9v17.6h5.2v-19.6l-7.1-7.8l6-6
		C-147.4-696.4-147.4-698.1-148.5-699.1L-148.5-699.1z"/>
	<path class="st2" d="M-131.9-655.8h-37.3c-1.4,0-2.5,1.1-2.5,2.5s1.1,2.5,2.5,2.5l0,0h37.3c1.4,0,2.5-1.1,2.5-2.5
		S-130.5-655.8-131.9-655.8z"/>
	<path class="st2" d="M-137.8-646.2h-25.4c-1.4,0-2.5,1.1-2.5,2.5s1.1,2.5,2.5,2.5l0,0h25.4c1.4,0,2.5-1.1,2.5-2.5
		C-135.2-645.1-136.4-646.2-137.8-646.2L-137.8-646.2z"/>
	<path class="st2" d="M-152.7-713.8l-8.7,8.7c-0.9,1-0.9,2.6,0.2,3.6c1,0.9,2.4,0.9,3.4,0l8.7-8.7c1-0.9,1.1-2.6,0.2-3.6
		s-2.6-1.1-3.6-0.2C-152.5-714-152.6-713.9-152.7-713.8L-152.7-713.8z"/>
	<rect x="-207.7" y="-748.4" class="st4" width="114.4" height="114.4"/>
</g>
<g class="st1">
	<path class="st5" d="M-107.1-674.6c-4.3,0.8-7.8,0-9.4-2.7s-0.4-6.7,2.4-9.8c-3.5-3.5-7.5-5.9-12.2-7.1c-1.2,3.9-3.9,7.1-7.1,7.1
		s-5.9-2.7-7.1-7.1c-4.7,1.2-9,3.5-12.2,7.1c2.7,3.1,3.9,7.1,2.4,9.8c-1.6,2.7-5.5,3.5-9.4,2.7c-1.2,2.4-1.6,4.7-1.6,7.1
		s0.4,4.7,0.8,7.1c4.3-0.8,7.8,0,9.4,2.7c1.6,2.7,0.4,6.7-2.4,9.8c3.5,3.5,7.5,5.9,12.2,7.1c1.2-3.9,3.9-7.1,7.1-7.1
		s5.9,2.7,7.1,7.1c4.7-1.2,9-3.5,12.2-7.1c-2.7-3.1-3.9-7.1-2.4-9.8c1.6-2.7,5.5-3.5,9.4-2.7c0.8-2.4,0.8-4.7,0.8-7.1
		S-106.7-672.3-107.1-674.6z"/>
	<circle class="st5" cx="-133.7" cy="-667.6" r="7.8"/>
	<line class="st6" x1="-200.4" y1="-706.8" x2="-137.7" y2="-706.8"/>
	<path class="st6" d="M-178.8-722.1l-4.7-16.5l0,0c9-4.7,20-4.7,29,0l0,0l-4.7,16.5"/>
	<path class="st6" d="M-155.3-734.6c7.8,4.7,12.9,13.3,12.9,23.1v4.7"/>
	<path class="st6" d="M-195.7-706.8v-4.7c0-9.8,5.1-18.4,12.9-23.1"/>
	<path class="st6" d="M-188.6-706.8v7.8c0,8.2,3.5,15.7,9.8,19.6l0,0c0,8.2-5.1,15.3-12.6,17.3c-8.6,2.4-14.9,10.2-16.9,19.6
		c0,1.2,0.8,2.4,2,2.4h37.3"/>
</g>
<g>
	<line class="st7" x1="90" y1="52" x2="90" y2="34.4"/>
	<line class="st7" x1="97.6" y1="52" x2="97.6" y2="34.4"/>
	<line class="st7" x1="105.1" y1="52" x2="105.1" y2="36.9"/>
	<path class="st7" d="M107.6,77.1L107.6,77.1c3.3-8.3,5-17.1,5-26.1V38.2c0-2-1.8-3.8-3.8-3.8s-3.8,1.8-3.8,3.8v-2.5
		c0-2-1.8-3.8-3.8-3.8s-3.8,1.8-3.8,3.8v-2.5c0-2-1.8-3.8-3.8-3.8s-3.8,1.8-3.8,3.8v2.5c0-2-1.8-3.8-3.8-3.8s-3.8,1.8-3.8,3.8v18.8
		v6l-6.3-6.3c-1.5-1.5-3.8-1.8-5.3-0.5c-2,1.5-2.3,4.5-0.5,6.3l17.1,17.1"/>
	<path class="st7" d="M109.4,72.1c10,0.5,18.3-7.5,18.3-17.6c0-3-0.8-5.8-2-8.3c-2-3.8-2.3-8-1-11.8c0.8-2.5,1-5,0.5-7.8
		c-1.3-7.3-7-13.1-14.3-14.3c-4-0.8-8,0-11.3,1.8c-4.5,2-9.5,2.5-14.3,1c-2.5-0.8-5.5-1-8.5-0.5c-7,1.3-12.8,7-14.1,14.1V29
		c-1.3,7.8-4,15.1-8,22.1c-2,3.5-2.8,7.5-2,11.8c1.3,7,6.8,12.8,13.8,14.1c6.3,1.3,12.1-0.8,16.1-4.8"/>
</g>
<g class="st1">
	<g class="st8">
		<g>
			<path class="st9" d="M126.6,26.5l-14.3-14.3c-3-3-7.8-3-10.8,0c-1.3,1.3-46.9,46.9-48.2,48.2c-2.9,2.9-2.9,7.6,0,10.5l8.4,8.4
				c1.4,1.4,3.7,0.8,4.2-1.1l1.9-6.4l7.9-0.7c1-0.1,1.9-0.8,2.2-1.8l1.9-6.4l7.9-0.7c1-0.1,1.9-0.8,2.2-1.8l1.9-6.4l7.9-0.7
				c1-0.1,1.9-0.8,2.2-1.8l1.9-6.2h5.9c3,2.2,7.2,1.9,9.9-0.7l7.2-7.2C129.6,34.3,129.6,29.4,126.6,26.5z M101.7,40.1
				c-1.1,0-2.1,0.7-2.4,1.8l-1.9,6.4L89.6,49c-1,0.1-1.9,0.8-2.2,1.8l-1.9,6.4l-7.9,0.7c-1,0.1-1.9,0.8-2.2,1.8l-1.9,6.4l-7.9,0.7
				c-1,0.1-1.9,0.8-2.2,1.8l-1.2,4l-5.4-5.4c-0.9-0.9-0.9-2.4,0-3.4l35.6-35.6l3.5,3.5l8.4,8.4H101.7z M123,33.6l-7.2,7.2
				c-1,1-2.6,1-3.6,0L96.1,24.7l9-9c1-1,2.6-1,3.6,0L123,30.1C124,31,124,32.7,123,33.6z"/>
		</g>
	</g>
	<g class="st8">
		<g>
			<path class="st9" d="M115.9,30.1l-7.2-7.2c-1-1-2.6-1-3.6,0s-1,2.6,0,3.6l7.2,7.2c0.5,0.5,1.1,0.7,1.8,0.7c0.6,0,1.3-0.2,1.8-0.7
				C116.8,32.7,116.8,31,115.9,30.1z"/>
		</g>
	</g>
</g>
<path class="st0" d="M115.4,16.5h-3.8c-1.3-3.8-4.9-6.3-8.9-6.3H64.6c-5.3,0-9.5,4.3-9.5,9.5s4.3,9.5,9.5,9.5h38.1
	c4,0,7.6-2.6,8.9-6.3h3.8c1.8,0,3.2,1.4,3.2,3.2v9.5c0,1.8-1.4,3.2-3.2,3.2h-19c-5.3,0-9.5,4.3-9.5,9.5h-3.2c-1.8,0-3.2,1.4-3.2,3.2
	v25.4c0,1.8,1.4,3.2,3.2,3.2h12.7c1.8,0,3.2-1.4,3.2-3.2V51.3c0-1.8-1.4-3.2-3.2-3.2h-3.2c0-1.8,1.4-3.2,3.2-3.2h19
	c5.3,0,9.5-4.3,9.5-9.5V26C124.9,20.7,120.6,16.5,115.4,16.5z M102.7,22.8H64.6c-1.8,0-3.2-1.4-3.2-3.2c0-1.8,1.4-3.2,3.2-3.2h38.1
	c1.8,0,3.2,1.4,3.2,3.2C105.9,21.4,104.4,22.8,102.7,22.8z M93.2,73.5h-6.3v-19h6.3V73.5z M67.3,33.8c-1-1.5-3.1-1.9-4.6-0.8
	c-0.3,0.2-0.6,0.5-0.8,0.8l-5.3,8.8c-1,1.6-1.5,3.5-1.5,5.4c-0.3,5,3.5,9.3,8.6,9.6h1.9c5-0.3,8.8-4.6,8.6-9.6
	c0-1.9-0.5-3.8-1.5-5.4L67.3,33.8z M65.6,51.3h-1.9c-1,0-2.2-1.4-2.2-3.3c0-1.9,1-2.5,3.2-6.4c2.2,3.9,3.2,4.5,3.2,6.4
	C67.8,50,66.6,51.3,65.6,51.3z"/>
<g class="st1">
	<g class="st8">
		<path class="st9" d="M135.2,75.4l-7.8-46.6c-0.3-1.9-1.9-3.2-3.8-3.2h-6.5v-8c1.5-0.5,2.6-2,2.6-3.7c0-2.1-1.7-3.9-3.9-3.9h-2.6
			H97.8h-2.6c-2.1,0-3.9,1.7-3.9,3.9c0,1.7,1.1,3.1,2.6,3.7v8H56.4c-1.9,0-3.5,1.4-3.8,3.2l-7.8,46.6c-0.2,1.1,0.1,2.3,0.9,3.1
			c0.7,0.9,1.8,1.4,3,1.4h82.8c1.1,0,2.2-0.5,3-1.4C135.1,77.7,135.4,76.5,135.2,75.4z M101.6,17.8h7.8v7.8h-7.8V17.8L101.6,17.8z
			 M59.6,33.4h38.1h15.5h7.1l1.3,7.8H58.4L59.6,33.4z M57.1,48.9H123l1.3,7.8H55.8L57.1,48.9z M53.2,72.2l1.3-7.8h71.1l1.3,7.8H53.2
			L53.2,72.2z"/>
	</g>
</g>
</svg>
