<?xml version="1.0" encoding="utf-8"?>
<!-- Generator: Adobe Illustrator 27.3.0, SVG Export Plug-In . SVG Version: 6.00 Build 0)  -->
<svg version="1.1" id="Camada_1" xmlns="http://www.w3.org/2000/svg" xmlns:xlink="http://www.w3.org/1999/xlink" x="0px" y="0px"
	 viewBox="0 0 180 110" style="enable-background:new 0 0 180 110;" xml:space="preserve">
<style type="text/css">
	.st0{display:none;fill:#E5383B;}
	.st1{display:none;}
	.st2{display:inline;fill:#E5383B;}
	.st3{display:inline;fill:#FFFFFF;}
	.st4{display:inline;fill:#E5383B;fill-opacity:0;}
	.st5{display:inline;fill:none;stroke:#E5383B;stroke-width:7.8449;stroke-linejoin:round;stroke-miterlimit:10;}
	
		.st6{display:inline;fill:none;stroke:#E5383B;stroke-width:7.8449;stroke-linecap:round;stroke-linejoin:round;stroke-miterlimit:10;}
	
		.st7{display:inline;fill:none;stroke:#E5383B;stroke-width:7.5161;stroke-linecap:round;stroke-linejoin:round;stroke-miterlimit:10;}
	.st8{display:inline;}
	.st9{fill:#E5383B;}
</style>
<path class="st0" d="M-106.3-739.6h-94.4c-5.8,0-10.5,4.7-10.5,10.5v36.7c0,5.8,4.7,10.5,10.5,10.5h94.4c5.8,0,10.5-4.7,10.5-10.5
	v-36.7C-95.8-734.9-100.5-739.6-106.3-739.6z M-106.3-692.4h-94.4v-36.7h94.4C-106.3-729.1-106.3-692.4-106.3-692.4z M-190.2-702.9
	c0-2.9,2.3-5.2,5.2-5.2h62.9c2.9,0,5.2,2.3,5.2,5.2s-2.3,5.2-5.2,5.2H-185C-187.8-697.6-190.2-700-190.2-702.9z M-132.5-718.6
	c0-2.9,2.3-5.2,5.2-5.2h5.2c2.9,0,5.2,2.3,5.2,5.2s-2.3,5.2-5.2,5.2h-5.2C-130.1-713.4-132.5-715.7-132.5-718.6z M-165-648.9
	l6.8-6.8l-1.5-1.5c-2-2-2-5.4,0-7.4l10.5-10.5c2.1-2,5.4-2,7.4,0.1c2,2,2,5.3,0,7.3l-6.8,6.8l1.5,1.5c2,2,2,5.4,0,7.4l-10.5,10.5
	c-2.1,2-5.4,2-7.4-0.1C-167-643.6-167-646.9-165-648.9L-165-648.9z M-136.2-648.9l6.8-6.8l-1.5-1.5c-2-2-2-5.4,0-7.4l10.5-10.5
	c2.1-2,5.4-2,7.4,0.1c2,2,2,5.3,0,7.3l-6.8,6.8l1.5,1.5c2,2,2,5.4,0,7.4l-10.5,10.5c-2.1,2-5.4,2-7.4-0.1
	C-138.1-643.6-138.1-646.9-136.2-648.9L-136.2-648.9z M-193.9-648.9l6.8-6.8l-1.5-1.5c-2-2-2-5.4,0-7.4l10.5-10.5
	c2.1-2,5.4-2,7.4,0.1c2,2,2,5.3,0,7.3l-6.8,6.8l1.5,1.5c2,2,2,5.4,0,7.4l-10.5,10.5c-2.1,2-5.4,2-7.4-0.1
	C-195.8-643.6-195.8-646.9-193.9-648.9z"/>
<g class="st1">
	<circle class="st2" cx="-153.5" cy="-716.3" r="5.1"/>
	<path class="st2" d="M-166.6-683.4c-1.4-0.8-3.2-0.3-4,1.1l-0.2,0.4c-0.8,1.4-0.3,3.2,1.1,4c0.5,0.3,1,0.4,1.5,0.4
		c1,0,2-0.5,2.6-1.5l0.2-0.4C-164.7-680.8-165.2-682.6-166.6-683.4z"/>
	<path class="st2" d="M-107.3-652.5l-32.8-56.9c1.1-2.1,1.7-4.5,1.7-7c0-8.3-6.8-15.1-15.1-15.1c-0.8,0-1.5,0.1-2.2,0.2v-7.8h4.4
		v3.3c0,1.6,1.3,2.9,2.9,2.9c1.6,0,2.9-1.3,2.9-2.9v-6.2c0-1.6-1.3-2.9-2.9-2.9h-10.3c-0.8,0-1.5,0.3-2.1,0.9
		c-0.6,0.6-0.9,1.3-0.9,2.1v13c-4.2,2.7-7,7.4-7,12.7c0,2.5,0.6,4.9,1.7,7l-32.8,56.9c-0.4,0.7-0.5,1.5-0.3,2.2l3.8,14.1
		c0.3,1.2,1.3,2,2.5,2.2c0.1,0,0.3,0,0.4,0c1,0,2-0.6,2.6-1.5l18.6-32.2h15.8v4.4c0,1.6,1.3,2.9,2.9,2.9s2.9-1.3,2.9-2.9v-7.2
		c0-0.1,0-0.1,0-0.2s0-0.1,0-0.2v-7.2c0-1.6-1.3-2.9-2.9-2.9s-2.9,1.3-2.9,2.9v4.4h-17.5c-1.1,0-2,0.6-2.6,1.5l-15.9,27.5l-1.6-6
		l31.1-53.9c1.1,0.9,2.4,1.7,3.8,2.2l-7.1,12.2c-0.8,1.4-0.3,3.2,1.1,4c0.5,0.3,1,0.4,1.5,0.4c1,0,2-0.5,2.6-1.5l7.5-13l15.4,26.6
		h-6.8c-1.6,0-2.9,1.3-2.9,2.9s1.3,2.9,2.9,2.9h11.9c1.1,0,2-0.6,2.6-1.5c0.5-0.9,0.5-2,0-2.9l-17.5-30.2c1.4-0.6,2.7-1.3,3.8-2.2
		l31.1,53.9l-1.6,6l-9.8-17c-0.8-1.4-2.6-1.9-4-1.1c-1.4,0.8-1.9,2.6-1.1,4l13.4,23.1c0.5,0.9,1.5,1.5,2.6,1.5c0.1,0,0.3,0,0.4,0
		c1.2-0.2,2.2-1,2.5-2.2l3.8-14.1C-106.8-651-106.9-651.8-107.3-652.5z M-153.5-707.1c-5.1,0-9.2-4.1-9.2-9.2c0-5.1,4.1-9.2,9.2-9.2
		c5.1,0,9.2,4.1,9.2,9.2C-144.3-711.3-148.4-707.1-153.5-707.1z"/>
</g>
<g class="st1">
	<rect x="-222" y="-745" class="st3" width="137" height="111"/>
	<path class="st2" d="M-150.5-741.2c-19.3,0-35,15.6-35,35c-0.1,5.1,1,10.1,3.2,14.7c1.1,2,2.3,3.8,3.6,5.7c2.5,3.4,4.7,7.1,6.4,11
		c1.2,4.1,1.8,8.4,1.9,12.7h6.4c-0.1-5-0.9-10.1-2.3-14.9c-1.8-4.4-4.2-8.6-7.1-12.5c-1.2-1.6-2.2-3.2-3.2-4.9
		c-1.7-3.7-2.6-7.8-2.5-11.9c0-15.9,12.9-28.7,28.7-28.7s28.7,12.9,28.7,28.7c0,4.1-0.9,8.2-2.7,12c-1,1.7-2,3.3-3.2,4.9
		c-2.8,3.8-5.2,8-7,12.4c-1.4,4.9-2.2,9.9-2.3,15h6.4c0.1-4.3,0.7-8.6,1.9-12.7c1.7-3.9,3.8-7.6,6.4-11c1.3-1.8,2.5-3.8,3.6-5.8
		c2.1-4.6,3.2-9.6,3.2-14.7C-115.6-725.6-131.2-741.2-150.5-741.2z"/>
	<path class="st2" d="M-148.5-699.1c-1-1-2.6-1-3.6,0l-9.5,9.5l9.1,9.9v17.6h5.2v-19.6l-7.1-7.8l6-6
		C-147.4-696.4-147.4-698.1-148.5-699.1L-148.5-699.1z"/>
	<path class="st2" d="M-131.9-655.8h-37.3c-1.4,0-2.5,1.1-2.5,2.5s1.1,2.5,2.5,2.5l0,0h37.3c1.4,0,2.5-1.1,2.5-2.5
		S-130.5-655.8-131.9-655.8z"/>
	<path class="st2" d="M-137.8-646.2h-25.4c-1.4,0-2.5,1.1-2.5,2.5s1.1,2.5,2.5,2.5l0,0h25.4c1.4,0,2.5-1.1,2.5-2.5
		C-135.2-645.1-136.4-646.2-137.8-646.2L-137.8-646.2z"/>
	<path class="st2" d="M-152.7-713.8l-8.7,8.7c-0.9,1-0.9,2.6,0.2,3.6c1,0.9,2.4,0.9,3.4,0l8.7-8.7c1-0.9,1.1-2.6,0.2-3.6
		s-2.6-1.1-3.6-0.2C-152.5-714-152.6-713.9-152.7-713.8L-152.7-713.8z"/>
	<rect x="-207.7" y="-748.4" class="st4" width="114.4" height="114.4"/>
</g>
<g class="st1">
	<path class="st5" d="M-107.1-674.6c-4.3,0.8-7.8,0-9.4-2.7s-0.4-6.7,2.4-9.8c-3.5-3.5-7.5-5.9-12.2-7.1c-1.2,3.9-3.9,7.1-7.1,7.1
		s-5.9-2.7-7.1-7.1c-4.7,1.2-9,3.5-12.2,7.1c2.7,3.1,3.9,7.1,2.4,9.8c-1.6,2.7-5.5,3.5-9.4,2.7c-1.2,2.4-1.6,4.7-1.6,7.1
		s0.4,4.7,0.8,7.1c4.3-0.8,7.8,0,9.4,2.7c1.6,2.7,0.4,6.7-2.4,9.8c3.5,3.5,7.5,5.9,12.2,7.1c1.2-3.9,3.9-7.1,7.1-7.1
		s5.9,2.7,7.1,7.1c4.7-1.2,9-3.5,12.2-7.1c-2.7-3.1-3.9-7.1-2.4-9.8c1.6-2.7,5.5-3.5,9.4-2.7c0.8-2.4,0.8-4.7,0.8-7.1
		S-106.7-672.3-107.1-674.6z"/>
	<circle class="st5" cx="-133.7" cy="-667.6" r="7.8"/>
	<line class="st6" x1="-200.4" y1="-706.8" x2="-137.7" y2="-706.8"/>
	<path class="st6" d="M-178.8-722.1l-4.7-16.5l0,0c9-4.7,20-4.7,29,0l0,0l-4.7,16.5"/>
	<path class="st6" d="M-155.3-734.6c7.8,4.7,12.9,13.3,12.9,23.1v4.7"/>
	<path class="st6" d="M-195.7-706.8v-4.7c0-9.8,5.1-18.4,12.9-23.1"/>
	<path class="st6" d="M-188.6-706.8v7.8c0,8.2,3.5,15.7,9.8,19.6l0,0c0,8.2-5.1,15.3-12.6,17.3c-8.6,2.4-14.9,10.2-16.9,19.6
		c0,1.2,0.8,2.4,2,2.4h37.3"/>
</g>
<g class="st1">
	<line class="st7" x1="-150.5" y1="-676" x2="-150.5" y2="-702.3"/>
	<line class="st7" x1="-139.2" y1="-676" x2="-139.2" y2="-702.3"/>
	<line class="st7" x1="-128" y1="-676" x2="-128" y2="-698.5"/>
	<path class="st7" d="M-124.2-638.4L-124.2-638.4c4.9-12.4,7.5-25.6,7.5-39.1v-19.2c0-3-2.6-5.6-5.6-5.6s-5.6,2.6-5.6,5.6v-3.8
		c0-3-2.6-5.6-5.6-5.6s-5.6,2.6-5.6,5.6v-3.8c0-3-2.6-5.6-5.6-5.6s-5.6,2.6-5.6,5.6v3.8c0-3-2.6-5.6-5.6-5.6s-5.6,2.6-5.6,5.6v28.2
		v9l-9.4-9.4c-2.3-2.3-5.6-2.6-7.9-0.8c-3,2.3-3.4,6.8-0.8,9.4l25.6,25.6"/>
	<path class="st7" d="M-121.6-645.9c15,0.8,27.4-11.3,27.4-26.3c0-4.5-1.1-8.6-3-12.4c-3-5.6-3.4-12-1.5-17.7
		c1.1-3.8,1.5-7.5,0.8-11.6c-1.9-10.9-10.5-19.5-21.4-21.4c-6-1.1-12,0-16.9,2.6c-6.8,3-14.3,3.8-21.4,1.5
		c-3.8-1.1-8.3-1.5-12.8-0.8c-10.5,1.9-19.2,10.5-21,21v0.4c-1.9,11.6-6,22.5-12,33.1c-3,5.3-4.1,11.3-3,17.7
		c1.9,10.5,10.1,19.2,20.7,21c9.4,1.9,18-1.1,24.1-7.1"/>
</g>
<g class="st1">
	<g class="st8">
		<g>
			<path class="st9" d="M-98.3-718.2l-22.2-22.2c-4.6-4.6-12.1-4.6-16.7,0c-2,2-72.7,72.7-74.6,74.6c-4.5,4.5-4.5,11.8,0,16.3l13,13
				c2.1,2.1,5.7,1.2,6.5-1.7l2.9-9.9l12.2-1.1c1.6-0.1,3-1.3,3.4-2.8l2.9-9.9l12.2-1.1c1.6-0.1,3-1.3,3.4-2.8l2.9-9.9l12.2-1.1
				c1.6-0.1,3-1.3,3.4-2.8l2.9-9.7h9.1c4.6,3.4,11.2,3,15.3-1.2l11.1-11.1C-93.7-706.1-93.7-713.6-98.3-718.2z M-136.8-697.1
				c-1.7,0-3.3,1.1-3.8,2.8l-2.9,9.9l-12.2,1.1c-1.6,0.1-3,1.3-3.4,2.8l-2.9,9.9l-12.2,1.1c-1.6,0.1-3,1.3-3.4,2.8l-2.9,9.9
				l-12.2,1.1c-1.6,0.1-3,1.3-3.4,2.8l-1.8,6.1l-8.3-8.3c-1.4-1.4-1.4-3.8,0-5.2l55.2-55.2l5.4,5.4l12.9,12.9L-136.8-697.1z
				 M-103.8-707.1l-11.1,11.1c-1.5,1.5-4,1.5-5.6,0l-25-25l13.9-13.9c1.5-1.5,4-1.5,5.6,0l22.2,22.2
				C-102.3-711.1-102.3-708.6-103.8-707.1z"/>
		</g>
	</g>
	<g class="st8">
		<g>
			<path class="st9" d="M-114.9-712.6l-11.1-11.1c-1.5-1.5-4-1.5-5.6,0c-1.5,1.5-1.5,4,0,5.6l11.1,11.1c0.8,0.8,1.8,1.2,2.8,1.2
				s2-0.4,2.8-1.2C-113.4-708.6-113.4-711.1-114.9-712.6z"/>
		</g>
	</g>
</g>
<path class="st0" d="M-110.3-731.1h-5.5c-2-5.5-7.2-9.2-13-9.3h-55.5c-7.7,0-13.9,6.2-13.9,13.9s6.2,13.9,13.9,13.9h55.5
	c5.9,0,11.1-3.7,13-9.2h5.5c2.6,0,4.6,2.1,4.6,4.6v13.9c0,2.6-2.1,4.6-4.6,4.6h-27.8c-7.7,0-13.9,6.2-13.9,13.9h-4.6
	c-2.6,0-4.6,2.1-4.6,4.6v37c0,2.6,2.1,4.6,4.6,4.6h18.5c2.6,0,4.6-2.1,4.6-4.6v-37c0-2.6-2.1-4.6-4.6-4.6h-4.6
	c0-2.6,2.1-4.6,4.6-4.6h27.8c7.7,0,13.9-6.2,13.9-13.9v-13.9C-96.4-724.9-102.6-731.1-110.3-731.1z M-128.8-721.9h-55.5
	c-2.6,0-4.6-2.1-4.6-4.6s2.1-4.6,4.6-4.6h55.5c2.6,0,4.6,2.1,4.6,4.6S-126.3-721.9-128.8-721.9z M-142.7-647.9h-9.3v-27.8h9.3
	V-647.9z M-180.4-705.8c-1.5-2.2-4.5-2.7-6.7-1.2c-0.5,0.3-0.9,0.7-1.2,1.2L-196-693c-1.4,2.4-2.2,5.1-2.2,7.9
	c-0.4,7.3,5.2,13.6,12.5,14h2.8c7.3-0.5,12.9-6.7,12.5-14c0-2.8-0.7-5.5-2.2-7.9L-180.4-705.8z M-182.9-680.3h-2.8
	c-1.5,0-3.2-2-3.2-4.8s1.4-3.7,4.6-9.4c3.2,5.7,4.6,6.5,4.6,9.4S-181.4-680.3-182.9-680.3z"/>
<g>
	<g>
		<path class="st9" d="M135.2,75.4l-7.8-46.6c-0.3-1.9-1.9-3.2-3.8-3.2h-6.5v-8c1.5-0.5,2.6-2,2.6-3.7c0-2.1-1.7-3.9-3.9-3.9h-2.6
			H97.8h-2.6c-2.1,0-3.9,1.7-3.9,3.9c0,1.7,1.1,3.1,2.6,3.7v8H56.4c-1.9,0-3.5,1.4-3.8,3.2l-7.8,46.6c-0.2,1.1,0.1,2.3,0.9,3.1
			c0.7,0.9,1.8,1.4,3,1.4h82.8c1.1,0,2.2-0.5,3-1.4C135.1,77.7,135.4,76.5,135.2,75.4z M101.6,17.8h7.8v7.8h-7.8V17.8L101.6,17.8z
			 M59.6,33.4h38.1h15.5h7.1l1.3,7.8H58.4L59.6,33.4z M57.1,48.9H123l1.3,7.8H55.8L57.1,48.9z M53.2,72.2l1.3-7.8h71.1l1.3,7.8H53.2
			L53.2,72.2z"/>
	</g>
</g>
</svg>
